<?xml version="1.0" encoding="utf-8"?>
<!-- Generator: Adobe Illustrator 23.1.1, SVG Export Plug-In . SVG Version: 6.00 Build 0)  -->
<svg version="1.1" xmlns="http://www.w3.org/2000/svg" xmlns:xlink="http://www.w3.org/1999/xlink" x="0px" y="0px"
	 viewBox="0 0 841.89 595.28" style="enable-background:new 0 0 841.89 595.28;" xml:space="preserve">
<style type="text/css">
	.st0{fill:#242441;}
	.st1{fill:#F58220;}
	.st2{opacity:0.6;fill:#F58220;}
	.st3{opacity:0.3;fill:#F58220;}
</style>
<g id="Artwork">
	<g>
		<g>
			<path class="st0" d="M282.7,321.2V221.17h56.03v12.61h-41.7v29.24h37.97v12.61h-37.97v32.96h41.7v12.61H282.7z"/>
			<path class="st0" d="M404.81,321.2v-87.41h-31.1v-12.61h76.52v12.61h-31.1v87.41H404.81z"/>
			<path class="st0" d="M487.79,321.2V221.17h14.33V321.2H487.79z"/>
			<path class="st0" d="M574.64,321.2v-41.84l-39.12-58.18h16.75l29.79,44.82l29.16-44.82h16.73l-38.98,58.19v41.84H574.64z"/>
			<path class="st0" d="M637.84,321.2l42.7-100.03h15.05l42.27,100.03h-15.56l-10.19-25.22h-49.04L652.9,321.2H637.84z
				 M707.46,284.23l-19.88-49.62l-19.93,49.62H707.46z"/>
		</g>
		<rect x="173.35" y="185.65" class="st1" width="43.73" height="35.53"/>
		<rect x="173.38" y="252.88" class="st1" width="43.73" height="35.53"/>
		<rect x="173.41" y="321.21" class="st1" width="43.73" height="35.53"/>
		<rect x="129.65" y="321.21" class="st2" width="43.73" height="35.53"/>
		<rect x="129.65" y="252.88" class="st2" width="43.73" height="35.53"/>
		<rect x="85.92" y="288.41" class="st3" width="43.73" height="68.33"/>
	</g>
</g>
<g id="Minimum_Clear_Space">
</g>
<g id="Print_Info.">
</g>
</svg>
